<?xml version="1.0" encoding="utf-8"?>
<!-- Generator: Adobe Illustrator 21.1.0, SVG Export Plug-In . SVG Version: 6.00 Build 0)  -->
<svg version="1.1" id="Layer_1" xmlns="http://www.w3.org/2000/svg" xmlns:xlink="http://www.w3.org/1999/xlink" x="0px" y="0px"
	 viewBox="0 0 584 258" style="enable-background:new 0 0 584 258;" xml:space="preserve">
<g>
	<g>
		<path d="M145.4,9H2.1V1.9h155.5L12.3,251.2h146.1v6.9H-0.1L145.4,9z"/>
	</g>
	<g>
		<path d="M260,249.2l69.4-167.4h7.6l-73.2,176.3h-8L182.8,81.8h7.6L260,249.2z"/>
	</g>
	<g>
		<path d="M576.9,141.9h7.1v88.6l-1.4,1.1C557.3,249.9,526,259,488.7,259h-0.5c-39.8,0-70.7-11.6-92.6-34.9
			c-21.5-22.7-32.2-54.2-32.2-94.6c0-40.4,10.7-72,32.2-94.8C417.4,11.6,448,0,487.5,0h1.2c16.7,0,32.4,3.1,47.1,9.2
			c16.4,6.7,29.1,16.3,37.9,28.7l-5.7,4.1c-8.3-11.5-20.1-20.3-35.6-26.6c-13.7-5.6-28.3-8.4-43.8-8.5h-0.5
			c-37.9,0-67.1,10.9-87.7,32.8c-20.2,21.5-30.3,51.4-30.3,89.8s10.1,68.3,30.3,89.6c20.7,22,50.1,33,88.2,33
			c35-0.1,64.4-8.5,88.2-25.2V141.9z"/>
	</g>
</g>
<g>
	<rect x="309.5" y="139.8" width="274.4" height="6.2"/>
</g>
<g>
	<rect x="73" y="139.8" width="140.3" height="6.2"/>
</g>
</svg>
